<svg height="511pt" viewBox="0 1 511 511.999" width="511pt" xmlns="http://www.w3.org/2000/svg"><path d="m426.433594 215.222656-16.21875-37.535156-70.816406 49.902344 24.9375-170.605469-70.699219 29.273437-37.777344-86.257812-37.777344 86.257812-70.695312-29.273437 24.898437 170.351563-69.445312-51.207032-16.367188 37.882813-85.972656 20.367187 43.394531 75.882813-16.09375 37.246093 113.679688 25.25-28.117188 85.484376 127.523438-31.882813v10.769531c0 41.285156 33.585937 74.871094 74.871093 74.871094h59.894532v-29.949219h-59.894532c-24.769531 0-44.921874-20.152343-44.921874-44.921875v-10.769531l127.523437 31.882813-28.121094-85.496094 113.949219-23.847656-16.183594-37.457032 43.363282-75.824218zm15.710937 111.878906-110.816406 23.191407 21.617187 65.726562-82.109374-20.527343v-39.363282l110.757812-47.875-11.882812-27.492187-98.875 42.742187v-82.035156h-29.949219v82.074219l-98.898438-42.5625-11.835937 27.507812 110.734375 47.65625v39.347657l-82.109375 20.527343 21.484375-65.324219-110.597657-24.566406 7.660157-17.738281-30.941407-54.101563 61.621094-14.601562 7.386719-17.097656 96.914063 71.464844-27.65625-189.230469 49.09375 20.328125 22.117187-50.503906 22.121094 50.503906 49.09375-20.328125-27.390625 187.382812 97.65625-68.8125 7.539062 17.449219 60.667969 14.566406-30.972656 54.164063zm0 0"/><path d="m240.886719 181.574219h29.949219v29.949219h-29.949219zm0 0"/></svg>